<svg width="255" height="208" viewBox="0 0 255 208" fill="none" xmlns="http://www.w3.org/2000/svg">
<path d="M188.522 135.763C188.53 144.946 186.606 154.029 182.874 162.431C179.141 170.833 173.682 178.367 166.847 184.552C164.946 186.274 162.947 187.886 160.86 189.382C158.182 191.301 155.363 193.017 152.427 194.517H152.396C151.77 194.844 151.134 195.154 150.493 195.455C150.2 195.598 149.913 195.73 149.615 195.863C147.758 196.708 145.853 197.467 143.9 198.14C142.361 198.649 140.781 199.159 139.186 199.577C129.983 202.008 120.363 202.458 110.97 200.896C109.857 200.713 108.759 200.504 107.667 200.265L106.743 200.056C103.956 199.409 101.214 198.582 98.5351 197.58C96.9789 196.999 95.4536 196.362 93.959 195.669C93.3793 195.399 92.7996 195.124 92.2302 194.838C91.8403 194.645 91.4556 194.446 91.0708 194.247C80.6326 188.803 71.8388 180.702 65.5899 170.772C59.3411 160.843 55.8618 149.442 55.5082 137.738C55.1546 126.034 57.9395 114.447 63.5777 104.163C69.2159 93.8798 77.5048 85.2691 87.5957 79.2132C97.6865 73.1572 109.217 69.8736 121.006 69.6985C132.794 69.5235 144.418 72.4633 154.687 78.2169C164.955 83.9705 173.5 92.3311 179.445 102.443C185.39 112.554 188.523 124.054 188.522 135.763Z" fill="url(#paint0_linear_101_25)"/>
<path d="M139.432 140.542C143.669 144.873 156.012 161.727 156.012 161.727L148.43 172.767L141.612 150.834L139.432 140.542Z" fill="url(#paint1_linear_101_25)"/>
<path d="M152.396 194.553C151.77 194.879 151.134 195.19 150.492 195.491C150.2 195.633 149.913 195.766 149.615 195.898C147.758 196.744 145.853 197.503 143.9 198.176C142.361 198.685 140.781 199.195 139.186 199.612C129.983 202.044 120.363 202.493 110.97 200.932C109.857 200.749 108.759 200.54 107.667 200.3C103.665 203.041 99.9714 205.359 97.5244 206.414L97.7245 204.717L98.5555 197.62L100.479 181.108L108.103 173.786L90.963 175.106C90.963 175.106 92.7637 150.294 99.7919 145.188C106.82 140.083 114.192 135.508 114.192 135.508C115.072 136.084 116.04 136.513 117.06 136.777C119.497 137.446 122.031 137.703 124.555 137.536C127.561 137.398 130.567 134.622 130.711 134.479C130.711 134.479 135.431 135.411 139.432 140.562C141.428 143.214 142.861 146.24 143.644 149.458C144.629 153.223 146.378 162.017 148.369 172.64C149.672 179.477 151.041 187.058 152.396 194.553Z" fill="url(#paint2_linear_101_25)"/>
<path d="M156.012 161.747L163.328 170.261L189.055 144.898L190.03 139.706L195.16 135.279L192.877 142.03V150.823C192.877 150.823 173.034 182.769 167.565 184.414C161.168 186.345 148.44 172.757 148.44 172.757L156.012 161.747Z" fill="url(#paint3_linear_101_25)"/>
<path d="M129.305 173.389L135.271 187.655L142.982 184.363L137.329 170.403L129.305 173.389Z" fill="#7E57C2"/>
<path d="M137.616 182.606C136.657 183.39 135.225 183.207 133.45 183.298C131.066 183.361 128.778 184.251 126.986 185.815C124.601 187.807 117.932 193.02 111.263 197.778C110.052 198.639 108.841 199.49 107.672 200.326C103.67 203.067 99.9766 205.385 97.5295 206.439C96.8862 206.757 96.1915 206.958 95.4775 207.036C92.0506 207.122 91.317 199.989 91.1066 194.298C91.04 192.408 91.0246 190.681 90.9886 189.433C90.845 184.44 90.9886 175.167 90.9886 175.167L108.128 173.842L106.312 185.632L105.994 187.716V187.731L111.124 185.846L111.283 185.79L129.495 179.07L130.752 176.915L131.552 178.952H131.629L139.427 177.934C139.427 177.934 139.56 181.021 137.616 182.606Z" fill="url(#paint4_linear_101_25)"/>
<path d="M133.681 108.25C133.235 107.038 132.85 106.212 132.737 105.968V105.907C132.737 105.907 132.342 106.875 129.367 106.64C126.391 106.406 125.406 104.939 125.406 104.939C125.406 104.939 126.34 108.118 122.795 109.478C119.384 110.793 118.04 109.942 117.947 109.881C118.127 110.074 120.794 112.907 119.025 115.154C117.193 117.482 113.074 117.024 113.074 117.024V117.054C113.592 118.22 114.173 119.358 114.813 120.463C115.151 121.044 115.485 121.579 115.839 122.078V122.114C116.747 123.581 117.974 124.829 119.43 125.767C118.79 129.495 116.952 132.918 114.192 135.523C115.121 136.005 116.078 136.428 117.06 136.792C118.973 137.51 121.543 138.224 123.837 138.025C126.494 137.743 128.949 136.486 130.721 134.499L129.546 130.021L128.49 125.986C138.042 123.566 135.415 113.04 133.681 108.25ZM127.956 126.133L128.125 126.093L128.397 126.016C128.001 126.186 127.583 126.3 127.156 126.353C127.376 126.297 127.602 126.235 127.838 126.164L127.956 126.133Z" fill="url(#paint5_linear_101_25)"/>
<path d="M139.432 105.774C135.492 109.371 133.789 108.357 133.681 108.261V108.25C133.235 107.038 132.85 106.212 132.742 105.968L132.717 105.907C132.717 105.907 132.317 106.875 129.341 106.64C126.366 106.406 125.386 104.939 125.386 104.939C125.386 104.939 126.32 108.118 122.775 109.478C119.358 110.793 118.014 109.942 117.927 109.881C118.106 110.069 120.774 112.902 119.004 115.149C117.173 117.477 113.053 117.024 113.053 117.024V117.049C113.571 118.217 114.152 119.356 114.792 120.463C115.134 121.04 115.476 121.579 115.818 122.078V122.114C115.818 122.114 114.413 124.86 111.904 124.804C109.395 124.748 109.339 122.256 109.339 122.256C109.339 122.256 107.564 125.435 102.08 122.373C96.5958 119.311 100.254 114.874 100.254 114.874C100.254 114.874 96.365 111.919 96.365 107.491C96.365 103.064 102.418 99.696 102.418 99.696C102.418 99.696 100.254 94.5552 103.906 91.7224C107.559 88.8897 113.048 90.8104 113.048 90.8104C113.048 90.8104 112.94 84.2329 118.532 84.3399C124.124 84.4469 125.391 87.8452 125.391 87.8452C125.391 87.8452 130.418 83.9833 135.395 87.621C140.371 91.2588 138.324 97.602 138.324 97.602C138.324 97.602 143.541 102.029 139.432 105.774Z" fill="url(#paint6_linear_101_25)"/>
<path opacity="0.15" d="M129.587 130.006C127.202 129.257 122.959 126.398 122.959 126.398C124.634 126.574 126.325 126.485 127.971 126.134L128.141 126.093L128.469 125.996H128.515L129.587 130.006Z" fill="black"/>
<path opacity="0.15" d="M110.416 158.547L108.103 173.832L106.287 185.622L102.059 189.112L111.258 185.795C111.258 185.795 108.872 179.029 110.416 158.547Z" fill="black"/>
<path opacity="0.15" d="M107.656 200.3C108.749 200.54 109.847 200.748 110.96 200.932C111.016 199.887 111.119 198.833 111.263 197.778L107.656 200.3Z" fill="black"/>
<g filter="url(#filter0_d_101_25)">
<path d="M85.4225 10H57.992C54.2067 10 51.1382 13.0475 51.1382 16.8068V44.0493C51.1382 47.8086 54.2067 50.8561 57.992 50.8561H85.4225C89.2078 50.8561 92.2763 47.8086 92.2763 44.0493V16.8068C92.2763 13.0475 89.2078 10 85.4225 10Z" fill="#56CCF2"/>
</g>
<g filter="url(#filter1_d_101_25)">
<path d="M227.284 113H199.854C196.069 113 193 116.048 193 119.807V147.049C193 150.809 196.069 153.856 199.854 153.856H227.284C231.07 153.856 234.138 150.809 234.138 147.049V119.807C234.138 116.048 231.07 113 227.284 113Z" fill="#F2C94C"/>
</g>
<g filter="url(#filter2_d_101_25)">
<path d="M44.2844 113H16.8538C13.0685 113 10 116.048 10 119.807V147.049C10 150.809 13.0685 153.856 16.8538 153.856H44.2844C48.0696 153.856 51.1381 150.809 51.1381 147.049V119.807C51.1381 116.048 48.0696 113 44.2844 113Z" fill="#F58A8A"/>
</g>
<g filter="url(#filter3_d_101_25)">
<path d="M182.284 10H154.854C151.069 10 148 13.0475 148 16.8068V44.0493C148 47.8086 151.069 50.8561 154.854 50.8561H182.284C186.07 50.8561 189.138 47.8086 189.138 44.0493V16.8068C189.138 13.0475 186.07 10 182.284 10Z" fill="#6FCF97"/>
</g>
<path d="M175.254 14.3071H162.131C161.108 14.3071 160.279 15.1364 160.279 16.159V45.1481C160.279 46.171 161.109 47 162.131 47H175.254C176.277 47 177.106 46.1707 177.106 45.1481V16.159C177.106 15.1364 176.277 14.3071 175.254 14.3071ZM166.366 15.9124H171.019C171.12 15.9124 171.201 15.9937 171.201 16.094C171.201 16.1943 171.12 16.2756 171.019 16.2756H166.366C166.266 16.2756 166.185 16.1943 166.185 16.094C166.185 15.9937 166.266 15.9124 166.366 15.9124ZM168.693 46.021C168.233 46.021 167.86 45.6483 167.86 45.1888C167.86 44.7293 168.233 44.3566 168.693 44.3566C169.152 44.3566 169.525 44.7293 169.525 45.1888C169.525 45.6483 169.152 46.021 168.693 46.021ZM176.016 43.3678H161.369V17.7123H176.017V43.3678H176.016Z" fill="white"/>
<path d="M202.332 131.037H200.055C199.071 131.037 198.273 131.834 198.273 132.819V140.603C198.273 141.588 199.071 142.385 200.055 142.385H202.332C203.317 142.385 204.114 141.587 204.114 140.603V132.819C204.114 131.834 203.317 131.037 202.332 131.037ZM201.983 131.822C202.069 131.822 202.139 131.892 202.139 131.978C202.139 132.065 202.069 132.135 201.983 132.135C201.896 132.135 201.826 132.064 201.826 131.978C201.826 131.892 201.896 131.822 201.983 131.822ZM200.317 131.841H201.511C201.587 131.841 201.648 131.903 201.648 131.979C201.648 132.055 201.586 132.116 201.511 132.116H200.317C200.241 132.116 200.18 132.054 200.18 131.978C200.18 131.903 200.241 131.841 200.317 131.841ZM203.066 140.603C203.066 141.008 202.737 141.337 202.332 141.337H200.055C199.65 141.337 199.322 141.008 199.322 140.603V132.819C199.322 132.538 199.482 132.297 199.714 132.173C199.79 132.4 199.962 132.559 200.161 132.559H202.226C202.425 132.559 202.597 132.4 202.673 132.173C202.906 132.297 203.066 132.538 203.066 132.819V140.603Z" fill="white"/>
<path d="M227.966 129.256H221.593C220.625 129.256 219.832 130.048 219.832 131.017V140.899C219.832 141.867 220.625 142.66 221.593 142.66H227.966C228.934 142.66 229.727 141.867 229.727 140.899V131.017C229.727 130.048 228.934 129.256 227.966 129.256ZM224.779 142.159C224.552 142.159 224.368 141.975 224.368 141.747C224.368 141.519 224.552 141.335 224.779 141.335C225.007 141.335 225.191 141.52 225.191 141.747C225.191 141.975 225.007 142.159 224.779 142.159ZM228.678 140.787H220.88V131.017C220.88 130.63 221.207 130.304 221.593 130.304H227.966C228.352 130.304 228.678 130.63 228.678 131.017V140.787Z" fill="white"/>
<path fill-rule="evenodd" clip-rule="evenodd" d="M215.796 139.996H218.434V136.711H205.512V139.996H210.011C209.842 140.793 209.504 141.588 208.995 142.384C208.89 142.549 209.009 142.765 209.204 142.765H210.602H211.398H212.797H213.01H214.409H215.205H216.603C216.798 142.765 216.917 142.549 216.812 142.384C216.303 141.588 215.964 140.793 215.796 139.996Z" fill="white"/>
<path fill-rule="evenodd" clip-rule="evenodd" d="M224.201 127.858H225.249V124.976C225.249 124.443 224.817 124.01 224.284 124.01H201.523C200.99 124.01 200.558 124.443 200.558 124.976V129.639H201.606V125.059H224.201V127.858Z" fill="white"/>
<path d="M84.2113 21.1035C84.2601 21.1035 84.2997 21.1431 84.2997 21.1919V36.3176H59.6999V21.1919C59.6999 21.1431 59.7395 21.1035 59.7883 21.1035H84.2113ZM84.2113 20.0933H59.7887C59.1819 20.0933 58.6901 20.5851 58.6901 21.1919V37.3274H85.3099V21.1919C85.3099 20.5851 84.8181 20.0933 84.2113 20.0933Z" fill="white"/>
<path d="M86.1847 38.2265C86.1847 38.8457 85.6828 39.3474 85.0639 39.3474H58.9362C58.3169 39.3474 57.8153 38.8454 57.8153 38.2265" fill="white"/>
<path d="M85.0638 39.9066H58.9361C58.0096 39.9066 57.256 39.1527 57.256 38.2261H58.3746C58.3746 38.5361 58.6265 38.788 58.9361 38.788H85.0638C85.3738 38.788 85.6257 38.5361 85.6257 38.2261H86.744C86.744 39.1527 85.9901 39.9066 85.0638 39.9066Z" fill="white"/>
<path d="M23.5978 119.118C23.1208 119.241 22.7357 119.388 22.7357 119.459C22.7357 119.482 23.3851 120.165 24.1782 120.971C24.9713 121.782 25.6725 122.547 25.7414 122.676C25.9311 123.035 25.9196 123.647 25.7127 124.006C25.5231 124.335 25.2242 124.576 24.8736 124.682C24.5231 124.794 24.4081 124.788 24.0173 124.641C23.7127 124.524 23.5518 124.376 22.2012 123.006C21.0231 121.812 20.707 121.518 20.6667 121.588C20.569 121.747 20.3851 122.376 20.3162 122.788C20.1667 123.688 20.4483 124.853 21.0116 125.706C21.6437 126.659 22.5805 127.288 23.6897 127.506C24.4139 127.647 24.9081 127.618 25.8679 127.376C25.9598 127.353 26.8794 128.265 30.2874 131.753L34.5863 136.159L34.4943 136.535C34.1265 137.959 34.5116 139.535 35.4828 140.6C36.6667 141.9 38.5748 142.324 40.138 141.635L40.3276 141.547L38.8506 140.024C37.2357 138.359 37.138 138.218 37.138 137.641C37.1495 136.612 38.2127 135.941 39.1437 136.382C39.2874 136.453 39.9139 137.041 40.8276 137.965C41.6265 138.776 42.2989 139.435 42.3219 139.429C42.3449 139.429 42.4368 139.2 42.5345 138.929C42.6897 138.482 42.7012 138.376 42.7012 137.676C42.7012 137.006 42.684 136.847 42.5518 136.412C42.4656 136.135 42.2989 135.741 42.1782 135.529C41.8736 134.988 41.0805 134.2 40.5805 133.929C39.546 133.376 38.3679 133.241 37.3621 133.553L37.0748 133.647L32.7529 129.218L28.4311 124.794L28.546 124.382C28.7932 123.5 28.6667 122.288 28.2299 121.382C27.3909 119.641 25.3909 118.665 23.5978 119.118Z" fill="white"/>
<path d="M41.1551 119.053C41.1207 119.082 40.454 119.441 39.6724 119.853L38.2471 120.606L38.0574 120.965C37.954 121.159 37.6034 121.853 37.2758 122.5L36.6896 123.676L34.8563 125.559L33.0229 127.441L33.7528 128.188L34.4885 128.935L36.3563 127.041L38.2241 125.147L39.6954 124.388L41.1609 123.635L41.385 123.182C41.5115 122.935 41.8678 122.235 42.1781 121.618L42.7356 120.506L42.0057 119.753C41.6034 119.341 41.2586 119 41.2413 119C41.2241 119 41.1839 119.024 41.1551 119.053Z" fill="white"/>
<path d="M24.2011 134.941C20.2241 139.006 20.3218 138.888 20.2758 139.724C20.1954 141.071 21.385 142.182 22.6551 141.959C23.385 141.829 23.3046 141.9 27.1609 137.965L30.7528 134.294L29.2873 132.794C28.4827 131.971 27.8103 131.294 27.7931 131.294C27.7758 131.294 26.1609 132.935 24.2011 134.941Z" fill="white"/>
<defs>
<filter id="filter0_d_101_25" x="41.1382" y="0" width="71.1382" height="70.8561" filterUnits="userSpaceOnUse" color-interpolation-filters="sRGB">
<feFlood flood-opacity="0" result="BackgroundImageFix"/>
<feColorMatrix in="SourceAlpha" type="matrix" values="0 0 0 0 0 0 0 0 0 0 0 0 0 0 0 0 0 0 127 0" result="hardAlpha"/>
<feOffset dx="5" dy="5"/>
<feGaussianBlur stdDeviation="7.5"/>
<feColorMatrix type="matrix" values="0 0 0 0 0 0 0 0 0 0 0 0 0 0 0 0 0 0 0.15 0"/>
<feBlend mode="normal" in2="BackgroundImageFix" result="effect1_dropShadow_101_25"/>
<feBlend mode="normal" in="SourceGraphic" in2="effect1_dropShadow_101_25" result="shape"/>
</filter>
<filter id="filter1_d_101_25" x="183" y="103" width="71.1382" height="70.8561" filterUnits="userSpaceOnUse" color-interpolation-filters="sRGB">
<feFlood flood-opacity="0" result="BackgroundImageFix"/>
<feColorMatrix in="SourceAlpha" type="matrix" values="0 0 0 0 0 0 0 0 0 0 0 0 0 0 0 0 0 0 127 0" result="hardAlpha"/>
<feOffset dx="5" dy="5"/>
<feGaussianBlur stdDeviation="7.5"/>
<feColorMatrix type="matrix" values="0 0 0 0 0 0 0 0 0 0 0 0 0 0 0 0 0 0 0.15 0"/>
<feBlend mode="normal" in2="BackgroundImageFix" result="effect1_dropShadow_101_25"/>
<feBlend mode="normal" in="SourceGraphic" in2="effect1_dropShadow_101_25" result="shape"/>
</filter>
<filter id="filter2_d_101_25" x="0" y="103" width="71.1382" height="70.8561" filterUnits="userSpaceOnUse" color-interpolation-filters="sRGB">
<feFlood flood-opacity="0" result="BackgroundImageFix"/>
<feColorMatrix in="SourceAlpha" type="matrix" values="0 0 0 0 0 0 0 0 0 0 0 0 0 0 0 0 0 0 127 0" result="hardAlpha"/>
<feOffset dx="5" dy="5"/>
<feGaussianBlur stdDeviation="7.5"/>
<feColorMatrix type="matrix" values="0 0 0 0 0 0 0 0 0 0 0 0 0 0 0 0 0 0 0.15 0"/>
<feBlend mode="normal" in2="BackgroundImageFix" result="effect1_dropShadow_101_25"/>
<feBlend mode="normal" in="SourceGraphic" in2="effect1_dropShadow_101_25" result="shape"/>
</filter>
<filter id="filter3_d_101_25" x="138" y="0" width="71.1382" height="70.8561" filterUnits="userSpaceOnUse" color-interpolation-filters="sRGB">
<feFlood flood-opacity="0" result="BackgroundImageFix"/>
<feColorMatrix in="SourceAlpha" type="matrix" values="0 0 0 0 0 0 0 0 0 0 0 0 0 0 0 0 0 0 127 0" result="hardAlpha"/>
<feOffset dx="5" dy="5"/>
<feGaussianBlur stdDeviation="7.5"/>
<feColorMatrix type="matrix" values="0 0 0 0 0 0 0 0 0 0 0 0 0 0 0 0 0 0 0.15 0"/>
<feBlend mode="normal" in2="BackgroundImageFix" result="effect1_dropShadow_101_25"/>
<feBlend mode="normal" in="SourceGraphic" in2="effect1_dropShadow_101_25" result="shape"/>
</filter>
<linearGradient id="paint0_linear_101_25" x1="122.273" y1="76.8651" x2="120.029" y2="207.076" gradientUnits="userSpaceOnUse">
<stop stop-color="white" stop-opacity="0"/>
<stop offset="1" stop-color="#64B5F6" stop-opacity="0.6"/>
</linearGradient>
<linearGradient id="paint1_linear_101_25" x1="134.41" y1="136.165" x2="152.56" y2="168.279" gradientUnits="userSpaceOnUse">
<stop stop-color="#E57373"/>
<stop offset="1" stop-color="#AD1457"/>
</linearGradient>
<linearGradient id="paint2_linear_101_25" x1="28141.2" y1="39794.5" x2="26229.2" y2="49295.9" gradientUnits="userSpaceOnUse">
<stop stop-color="#E57373"/>
<stop offset="1" stop-color="#AD1457"/>
</linearGradient>
<linearGradient id="paint3_linear_101_25" x1="202.122" y1="147.94" x2="152.589" y2="176.833" gradientUnits="userSpaceOnUse">
<stop stop-color="#FFF8E1"/>
<stop offset="1" stop-color="#FFCC80"/>
</linearGradient>
<linearGradient id="paint4_linear_101_25" x1="21652.4" y1="22319.6" x2="18981.7" y2="20506.4" gradientUnits="userSpaceOnUse">
<stop stop-color="#FFF8E1"/>
<stop offset="1" stop-color="#FFCC80"/>
</linearGradient>
<linearGradient id="paint5_linear_101_25" x1="138.703" y1="113.439" x2="111.662" y2="124.652" gradientUnits="userSpaceOnUse">
<stop stop-color="#FFF8E1"/>
<stop offset="1" stop-color="#FFCC80"/>
</linearGradient>
<linearGradient id="paint6_linear_101_25" x1="132.486" y1="84.1463" x2="101.053" y2="126.911" gradientUnits="userSpaceOnUse">
<stop stop-color="#FFB74D"/>
<stop offset="1" stop-color="#F4511E"/>
</linearGradient>
</defs>
</svg>
