<svg width="35" height="33" viewBox="0 0 35 33" fill="none" xmlns="http://www.w3.org/2000/svg">
<path d="M16.6732 1.05392C17.0858 0.527941 17.8884 0.547194 18.2754 1.09235L23.3457 8.23554C23.4642 8.40245 23.631 8.52898 23.8237 8.59805L33.715 12.1442C34.3514 12.3723 34.5827 13.1532 34.1732 13.6912L28.5199 21.1187C28.3874 21.2928 28.3156 21.5056 28.3156 21.7244V31.6331C28.3156 32.3097 27.6577 32.791 27.0129 32.5862L17.8027 29.6607C17.6058 29.5981 17.3942 29.5981 17.1973 29.6607L7.98714 32.5862C7.34229 32.791 6.6844 32.3097 6.6844 31.6331V21.7244C6.6844 21.5056 6.61265 21.2928 6.48013 21.1187L0.810975 13.6704C0.406178 13.1385 0.627012 12.3669 1.25189 12.1298L10.5775 8.59068C10.7477 8.52608 10.8971 8.41624 11.0094 8.273L16.6732 1.05392Z" fill="#FFA726" fill-opacity="0.8"/>
</svg>
