<svg width="9" height="72" viewBox="0 0 9 72" fill="none" xmlns="http://www.w3.org/2000/svg">
<path fill-rule="evenodd" clip-rule="evenodd" d="M0.732557 8.31609C0.713117 8.31565 0.693633 8.31476 0.674193 8.31432L0.675715 12.1063L0.734078 12.1063L0.732557 8.31609ZM2.84874 7.38017C2.9847 5.30478 3.51304 3.28097 3.69962 1.21231C3.1157 3.41973 2.68768 6.57386 2.84874 7.38017ZM4.29596 1.38217C4.22628 2.79516 3.87245 4.16821 3.69242 5.56639C3.30985 8.5378 3.50876 11.5045 3.64909 14.4806C3.84537 18.6456 5.32944 22.501 6.44105 26.4451C7.50707 30.227 8.15217 34.0485 7.99457 37.9869C7.91749 39.9078 7.47667 41.7413 6.77524 43.5213C6.02113 45.4348 5.2205 47.3309 4.31534 49.1797C3.17316 51.5124 2.71099 53.9979 2.58844 56.5489C2.48768 58.6438 2.48483 60.7457 2.64839 62.8395C2.77589 64.4697 3.30272 65.9947 4.051 67.4525C4.54452 68.4138 4.88102 69.4328 5.07294 70.4968C5.11741 70.7426 5.11459 70.9809 5.04988 71.217C4.99216 71.4269 4.98744 71.7848 4.63933 71.4017C4.5819 71.3387 4.51499 71.447 4.45661 71.4497C4.14914 71.4627 3.94007 71.3219 3.93216 71.009C3.90487 69.9159 3.44309 68.9534 2.97233 68.0073C2.40089 66.8588 1.73158 65.7527 1.34653 64.5252C0.957021 63.284 0.592033 62.04 0.612693 60.7079C0.626952 59.7969 0.516607 58.8795 0.400462 57.9726C0.326658 57.3965 0.445542 56.8308 0.478032 56.2728C0.499841 55.9003 0.348924 55.5829 0.380463 55.2321C0.420782 54.7843 0.422355 54.333 0.445529 53.8837C0.510231 52.6346 0.769744 51.4177 1.03583 50.1981C1.51001 48.026 2.67083 46.1131 3.38151 44.0298C3.91507 42.4657 4.56872 40.9341 4.93374 39.3254C5.14685 38.386 5.15754 37.3895 5.15871 36.4186C5.16328 32.3004 4.24256 28.3398 2.96358 24.4472C2.53512 23.1433 2.10648 21.834 1.75334 20.5144C1.4678 19.448 1.21105 18.3605 1.04852 17.2477C0.847502 15.8727 0.660925 14.4976 0.578428 13.1157C0.362515 9.50375 0.50372 5.9137 1.50047 2.39892C1.56207 2.18109 1.66882 1.97136 1.69928 1.7504C1.8316 0.791429 2.56397 0.401891 3.33565 0.0505989C3.63371 -0.084973 4.27218 0.318412 4.29334 0.650945C4.30881 0.893936 4.29665 1.13828 4.29596 1.38217Z" fill="#D3844A"/>
</svg>
