<svg width="133" height="132" viewBox="0 0 133 132" fill="none" xmlns="http://www.w3.org/2000/svg">
<path d="M133 66.5C132.993 78.5373 129.645 90.3405 123.32 100.616C116.996 110.892 107.941 119.244 97.1466 124.756C96.6609 125.008 96.1717 125.251 95.6791 125.483L95.5771 125.534L95.2256 125.701C94.9351 125.842 94.6497 125.973 94.3542 126.105C92.5095 126.943 90.6173 127.696 88.6776 128.363C87.5769 128.743 86.4643 129.095 85.3399 129.419L83.9946 129.787C69.0267 133.739 53.1354 132.368 39.081 125.913C38.5052 125.645 37.9294 125.372 37.3638 125.089L36.3446 124.584C26.2575 119.344 17.7007 111.618 11.498 102.15C10.8457 101.163 10.2241 100.153 9.63295 99.1187C9.10639 98.2195 8.59682 97.3085 8.10424 96.3857C3.31682 87.1395 0.827224 76.8931 0.842847 66.5C0.842847 65.2741 0.876816 64.055 0.944759 62.8426C1.90011 45.8104 9.52038 29.8196 22.1848 18.2713C34.8493 6.72299 51.5587 0.528281 68.7592 1.00472C85.9596 1.48116 102.294 8.59115 114.288 20.8225C126.283 33.0539 132.99 49.4415 132.985 66.5H133Z" fill="url(#paint0_linear_101_127)"/>
<defs>
<linearGradient id="paint0_linear_101_127" x1="67.1926" y1="8.09362" x2="64.9708" y2="137.225" gradientUnits="userSpaceOnUse">
<stop stop-color="white" stop-opacity="0"/>
<stop offset="1" stop-color="#64B5F6" stop-opacity="0.6"/>
</linearGradient>
</defs>
</svg>
